<svg xmlns="http://www.w3.org/2000/svg" width="44.032" height="47.177" viewBox="0 0 44.032 47.177">
  <path id="artificial-intelligence" d="M41.7,33.922V32.238a2.362,2.362,0,0,0-2.359-2.359H35c-1.047,0-1.16-1.1-1.16-1.573A3.148,3.148,0,0,0,30.7,25.161H19.687V22.016H31.482a3.148,3.148,0,0,0,3.145-3.145A1.574,1.574,0,0,1,36.2,17.3h3.145A2.362,2.362,0,0,0,41.7,14.939V13.255a3.145,3.145,0,1,0-1.573,0v1.684a.787.787,0,0,1-.786.786H36.2a3.148,3.148,0,0,0-3.145,3.145,1.574,1.574,0,0,1-1.573,1.573H19.687V15.726h3.931a3.936,3.936,0,0,0,3.931-3.931,1.574,1.574,0,0,1,1.573-1.573h2.359A2.362,2.362,0,0,0,33.84,7.863V6.179a3.145,3.145,0,1,0-1.573,0V7.863a.787.787,0,0,1-.786.786H29.123a3.148,3.148,0,0,0-3.145,3.145,2.362,2.362,0,0,1-2.359,2.359H19.687V5.867a4.306,4.306,0,0,0-4.309-4.295,3.847,3.847,0,0,0-3.539,2.507,5.4,5.4,0,0,1,2.344,4.57.786.786,0,0,1-1.573,0,3.628,3.628,0,0,0-2.065-3.476,5.3,5.3,0,0,0-1.112-.214,3.458,3.458,0,0,0-3.46,3.448,3.372,3.372,0,0,0,.5,1.753.786.786,0,0,1-1.125,1.047,1.753,1.753,0,0,0-1.009-.321,1.742,1.742,0,0,0-1.4.908.973.973,0,0,0-.063.829,3.724,3.724,0,0,1,3.446,3.888.786.786,0,1,1-1.573,0,2.2,2.2,0,0,0-2.278-2.352A3.249,3.249,0,0,0,.03,16.875,2.594,2.594,0,0,0,1.4,19.147a.786.786,0,0,1,0,1.382,2.574,2.574,0,0,0,.373,4.713.786.786,0,0,1,.2,1.381,2.56,2.56,0,0,0-.4,3.846,6.368,6.368,0,0,1,5.537-3.734.786.786,0,1,1,0,1.573A4.857,4.857,0,0,0,2.714,31.9c0,.009,0,.019,0,.028a4.275,4.275,0,0,0,4.175,5.336.786.786,0,0,1,.786.786,6.037,6.037,0,0,0,12.014.8v-1.1a6.3,6.3,0,0,0-6.29-6.29.786.786,0,1,1,0-1.573,7.847,7.847,0,0,1,6.29,3.166v-.807h3.145a3.148,3.148,0,0,1,3.145,3.145,3.148,3.148,0,0,0,3.145,3.145.787.787,0,0,1,.786.786V41a3.145,3.145,0,1,0,1.573,0V39.314a2.362,2.362,0,0,0-2.359-2.359,1.574,1.574,0,0,1-1.573-1.573,4.722,4.722,0,0,0-4.718-4.718H19.687V26.734H30.7a1.574,1.574,0,0,1,1.573,1.573c0,1.882,1.1,3.145,2.732,3.145h4.344a.787.787,0,0,1,.786.786v1.684a3.145,3.145,0,1,0,1.573,0Zm-27.52,4.606a.786.786,0,0,1,0-1.573,2.359,2.359,0,0,1,0,4.718.786.786,0,0,1,0-1.573.786.786,0,0,0,0-1.573Zm-1.573-27.52a3.148,3.148,0,0,1,3.145,3.145.786.786,0,1,1-1.573,0,1.573,1.573,0,1,0-1.573,1.573.786.786,0,0,1,0,1.573,3.145,3.145,0,1,1,0-6.29ZM11.038,36.169a.786.786,0,0,1,0,1.573,2.359,2.359,0,1,1,0-4.718.786.786,0,1,1,0,1.573.786.786,0,0,0,0,1.573ZM13.4,27.52a3.936,3.936,0,0,1-3.931-3.931.786.786,0,1,1,1.573,0A2.359,2.359,0,1,0,13.4,21.23a.786.786,0,1,1,0-1.573,3.931,3.931,0,0,1,0,7.863Z" transform="translate(-0.03)" fill="#4ed3f6"/>
</svg>
