<svg xmlns="http://www.w3.org/2000/svg" xmlns:xlink="http://www.w3.org/1999/xlink" width="60.275" height="60" viewBox="0 0 60.275 60">
  <defs>
    <filter id="Path_12243" x="0" y="0" width="60.275" height="60" filterUnits="userSpaceOnUse">
      <feOffset dy="3" input="SourceAlpha"/>
      <feGaussianBlur stdDeviation="3" result="blur"/>
      <feFlood flood-color="#7fd1d8"/>
      <feComposite operator="in" in2="blur"/>
      <feComposite in="SourceGraphic"/>
    </filter>
  </defs>
  <g id="Component_53_4" data-name="Component 53 – 4" transform="translate(9 6)">
    <g id="Group_7412" data-name="Group 7412">
      <g transform="matrix(1, 0, 0, 1, -9, -6)" filter="url(#Path_12243)">
        <path id="Path_12243-2" data-name="Path 12243" d="M85.327,7.868s3.851-21.249,21.819-21.249,23.815,19.252,17.968,30.376S102.439,31.683,92.6,25.837,85.327,7.868,85.327,7.868Z" transform="translate(-76.02 19.38)" fill="#242526"/>
      </g>
    </g>
    <g id="Group_8725" data-name="Group 8725" transform="translate(9 9)">
      <path id="Path_29024" data-name="Path 29024" d="M11,7,9.6,8.4,12.2,11H2v2H12.2L9.6,15.6,11,17l5-5Zm9,12H12v2h8a2.006,2.006,0,0,0,2-2V5a2.006,2.006,0,0,0-2-2H12V5h8Z" fill="#6cc"/>
    </g>
  </g>
</svg>
