<svg xmlns="http://www.w3.org/2000/svg" width="35" height="35" viewBox="0 0 35 35">
  <g id="Group_187" data-name="Group 187" transform="translate(-623 -651)">
    <rect id="Rectangle_202" data-name="Rectangle 202" width="35" height="35" rx="9" transform="translate(623 651)" fill="#951495"/>
    <g id="speech-bubble-with-text-lines" transform="translate(630 659)">
      <g id="Group_182" data-name="Group 182" transform="translate(0 0)">
        <path id="Path_664" data-name="Path 664" d="M3.553,7.23H16.714a3.557,3.557,0,0,1,3.553,3.553V18.9a3.557,3.557,0,0,1-3.553,3.553H8.331L4.319,26.467a.711.711,0,0,1-1.213-.5V22.426A3.559,3.559,0,0,1,0,18.9V10.783A3.557,3.557,0,0,1,3.553,7.23ZM1.421,18.9a2.134,2.134,0,0,0,2.132,2.132h.263a.711.711,0,0,1,.711.711v2.505l3.008-3.008a.71.71,0,0,1,.5-.208h8.677A2.134,2.134,0,0,0,18.846,18.9V10.783a2.134,2.134,0,0,0-2.132-2.132H3.553a2.134,2.134,0,0,0-2.132,2.132Z" transform="translate(0 -7.23)" fill="#fff"/>
        <path id="Path_665" data-name="Path 665" d="M74.453,95.743H84.914a.711.711,0,0,1,0,1.421H74.453a.711.711,0,0,1,0-1.421Z" transform="translate(-69.549 -90.711)" fill="#fff"/>
        <path id="Path_666" data-name="Path 666" d="M74.453,165.743H84.914a.711.711,0,0,1,0,1.421H74.453a.711.711,0,0,1,0-1.421Z" transform="translate(-69.549 -156.731)" fill="#fff"/>
      </g>
    </g>
  </g>
</svg>
